<svg xmlns="http://www.w3.org/2000/svg" xmlns:xlink="http://www.w3.org/1999/xlink"><symbol id="icon-burger-svg" viewBox="0 0 76.166 68.959">
    <path d="M71.914 46.042H4.252A4.265 4.265 0 0 0 0 50.294v3.454A4.265 4.265 0 0 0 4.252 58h.956v1.037c0 5.457 4.464 9.922 9.921 9.922h45.908c5.456 0 9.921-4.465 9.921-9.922V58h.956a4.265 4.265 0 0 0 4.252-4.252v-3.454a4.264 4.264 0 0 0-4.252-4.252zm-3.956 12.995c0 3.815-3.104 6.922-6.921 6.922H15.129a6.929 6.929 0 0 1-6.921-6.922V58h59.75v1.037zm5.208-5.289c0 .679-.573 1.252-1.252 1.252H4.252A1.268 1.268 0 0 1 3 53.748v-3.454c0-.679.573-1.252 1.252-1.252h67.662c.679 0 1.252.573 1.252 1.252v3.454zM16.162 37.856l5.473 4 5.477-4 5.479 4 5.478-4 5.479 4 5.478-4 5.479 4 5.48-4 5.489 4 6.368-4.644-1.768-2.424-4.6 3.356-5.489-4-5.48 4-5.479-4.001-5.478 4.001-5.479-4.001-5.478 4.001-5.479-4.001-5.476 4.001-5.473-4.002-5.477 4.002-4.593-3.355-1.77 2.422 6.363 4.645zM70.888 31.094c.041-.61.055-2.616.037-3C70.242 12.476 55.804 0 38.083 0 20.363 0 5.924 12.476 5.241 28.094c-.017.384-.004 2.389.039 3h65.608zM38.083 3c16.031 0 29.15 11.154 29.842 25.094H8.241C8.933 14.154 22.051 3 38.083 3z"/>
    <circle cx="38.083" cy="15.042" r="2"/>
    <circle cx="30.083" cy="10.083" r="2"/>
    <circle cx="46.083" cy="10.083" r="2"/>
</symbol><symbol id="icon-cross" viewBox="0 0 22.199 22.199">
    <path d="M22.199 2.804L19.396 0 11.1 8.297 2.804 0 0 2.803 8.297 11.1 0 19.396l2.803 2.803 8.297-8.297 8.296 8.297 2.803-2.803-8.296-8.296z"/>
</symbol><symbol id="icon-facebook-svg" viewBox="0 0 8.672 18.944">
    <path d="M6.275 3.356h2.398V0H5.795C2.656.181 1.54 2.387 1.948 6.114H0v3.518h1.959v9.312h3.837V9.632h2.857V6.114H5.787c-.022-1.045-.037-2.405.488-2.758z"/>
</symbol><symbol id="icon-gift-svg" viewBox="0 0 63 75.084">
    <path d="M60.165 22.23H35.758c13.604-6.815 14.688-11.115 14.188-13.52-1.145-3.916-5.604-6.938-9.848-5.341-5.484 2.063-7.029 10.262-8.514 16.19-1.894-5.998-3.726-13.649-8.011-17.525C22.331.909 20.524-.203 17.897.031c-3.965.352-9.652 5.317-7.344 10.849 2.217 5.313 9.539 8.67 14.354 11.35H2.834A2.843 2.843 0 0 0 0 25.065V36.25a2.842 2.842 0 0 0 2.835 2.834h.27v35.999h56.958V39.084h.104a2.842 2.842 0 0 0 2.835-2.834V25.065a2.846 2.846 0 0 0-2.837-2.835zM41.766 5.873c2.07-.306 4.907 1.283 5.176 3.171.386 2.723-3.349 5.192-5.008 6.343-2.484 1.723-4.853 2.611-7.178 4.006.872-3.645 2.512-12.854 7.01-13.52zm-22.534 9.848c-2.19-1.467-6.444-4.378-6.342-7.678.11-3.552 5.655-6.491 8.68-3.839 3.797 3.331 5.625 10.972 7.01 16.357-3.199-1.519-6.23-2.753-9.348-4.84zm5.882 56.426H6.042V39.084h19.072v33.063zm0-36.063H3V25.23h22.114v10.854zm10.001 36.062h-7.063V25.23h7.063v46.916zm22.01.001H38.053V39.084h19.072v33.063zM60 36.084H38.053V25.23H60v10.854z"/>
</symbol><symbol id="icon-house-svg" viewBox="0 0 74.695 72.346">
    <path d="M29.503 65.345h16V41.407h-16v23.938zm13.063-2.938H32.441V44.345h10.125v18.062z"/>
    <path d="M72.62 39.44l2.075-2.078-9.907-9.913V.47H50.974v13.161L37.349 0 0 37.363l2.077 2.078 7.832-7.832v37.799H5.971v2.938h63.875v-2.938h-5.059v-37.8l7.833 7.832zM53.913 3.408h7.938v21.104l-7.938-7.94V3.408zm7.937 65.999H12.846V28.671L37.348 4.169 61.85 28.671v40.736z"/>
    <path d="M29.753 27.21a7.75 7.75 0 1 0 15.5 0 7.75 7.75 0 0 0-15.5 0zm7.75-4.969a4.97 4.97 0 1 1 0 9.941 4.97 4.97 0 0 1 0-9.941zM16.909 41.407h3v3.938h-3zM22.846 41.407h3v3.938h-3zM16.909 47.407h3v3.938h-3zM22.846 47.407h3v3.938h-3zM48.846 41.407h3v3.938h-3zM54.784 41.407h3v3.938h-3zM48.846 47.407h3v3.938h-3zM54.784 47.407h3v3.938h-3z"/>
</symbol><symbol id="icon-menu-svg" viewBox="0 0 22.928 21.982">
    <path d="M0 0h22.928v3.964H0zM0 9.009h22.928v3.964H0zM0 18.018h22.928v3.964H0z"/>
</symbol><symbol id="icon-twitter-svg" viewBox="0 0 17.5 14.663">
    <path fill-rule="evenodd" d="M11.283.153c1.736-.484 3.074.264 3.685 1.15.694-.225 1.372-.47 2.072-.69-.004.841-.538 1.478-.883 1.728.704.165 1.343-.481 1.343-.481-.175.977-1.035 1.746-1.611 1.977-.239 6.592-3.272 10.956-10.382 10.823h-.46c-.422 0-4.29-.45-5.047-1.843 2.341.192 4.011-.412 4.835-1.15-.989-.293-2.761-.464-3.07-2.881.362.105.583.223 1.228.117C1.757 8.067.385 7.366.461 5.218c.294.319 1.1.523 1.381.461C1.117 5.444-.188 2.398.921.843 2.794 2.655 4.769 4.364 8.29 4.528c.216-2.24 1.171-3.74 2.993-4.375z" clip-rule="evenodd"/>
</symbol><symbol id="icon-youtube-svg" viewBox="0 0 19.979 14.015">
    <path d="M17.145 0H2.835A2.842 2.842 0 0 0 0 2.835v8.345a2.842 2.842 0 0 0 2.835 2.835h14.31a2.842 2.842 0 0 0 2.835-2.835V2.835A2.844 2.844 0 0 0 17.145 0zM7.036 10.392V3.623l6.769 3.384-6.769 3.385z"/>
</symbol></svg>